G04 #@! TF.FileFunction,Soldermask,Top*
%FSLAX46Y46*%
G04 Gerber Fmt 4.6, Leading zero omitted, Abs format (unit mm)*
G04 Created by KiCad (PCBNEW 4.0.7-e0-6372~58~ubuntu16.04.1) date Sun Feb 25 11:55:29 2018*
%MOMM*%
%LPD*%
G01*
G04 APERTURE LIST*
%ADD10C,0.100000*%
%ADD11C,0.010000*%
%ADD12O,1.900000X3.200000*%
%ADD13C,1.800000*%
G04 APERTURE END LIST*
D10*
D11*
G36*
X103328667Y-76359667D02*
X51893667Y-76359667D01*
X51893667Y-21665000D01*
X51936000Y-21665000D01*
X51936000Y-76317333D01*
X103286333Y-76317333D01*
X103286333Y-21665000D01*
X51936000Y-21665000D01*
X51893667Y-21665000D01*
X51893667Y-21622667D01*
X103328667Y-21622667D01*
X103328667Y-76359667D01*
X103328667Y-76359667D01*
G37*
X103328667Y-76359667D02*
X51893667Y-76359667D01*
X51893667Y-21665000D01*
X51936000Y-21665000D01*
X51936000Y-76317333D01*
X103286333Y-76317333D01*
X103286333Y-21665000D01*
X51936000Y-21665000D01*
X51893667Y-21665000D01*
X51893667Y-21622667D01*
X103328667Y-21622667D01*
X103328667Y-76359667D01*
G36*
X77728600Y-65071978D02*
X77847365Y-65166082D01*
X77943425Y-65268333D01*
X80931129Y-65268602D01*
X81489711Y-65269344D01*
X82071711Y-65271393D01*
X82663767Y-65274624D01*
X83252514Y-65278914D01*
X83824592Y-65284141D01*
X84366635Y-65290181D01*
X84865282Y-65296910D01*
X85307170Y-65304206D01*
X85678936Y-65311945D01*
X85707975Y-65312646D01*
X87497117Y-65356422D01*
X87597899Y-65239256D01*
X87729673Y-65145060D01*
X87889013Y-65116907D01*
X88049602Y-65155539D01*
X88149780Y-65223758D01*
X88242362Y-65362938D01*
X88265223Y-65523819D01*
X88219327Y-65681493D01*
X88127752Y-65793737D01*
X87973632Y-65883683D01*
X87815996Y-65891981D01*
X87750000Y-65873300D01*
X87667769Y-65827311D01*
X87609672Y-65782931D01*
X87580288Y-65765484D01*
X87531246Y-65749622D01*
X87458349Y-65735227D01*
X87357402Y-65722178D01*
X87224206Y-65710358D01*
X87054564Y-65699645D01*
X86844280Y-65689922D01*
X86589157Y-65681068D01*
X86284997Y-65672964D01*
X85927603Y-65665490D01*
X85512779Y-65658529D01*
X85036328Y-65651959D01*
X84494051Y-65645661D01*
X83881753Y-65639517D01*
X83195236Y-65633407D01*
X82430304Y-65627211D01*
X82026210Y-65624112D01*
X77932253Y-65593191D01*
X77855944Y-65687429D01*
X77745954Y-65766338D01*
X77610734Y-65804197D01*
X77441627Y-65792831D01*
X77309797Y-65721075D01*
X77220421Y-65606882D01*
X77178679Y-65468209D01*
X77189747Y-65323011D01*
X77258803Y-65189242D01*
X77391024Y-65084858D01*
X77401780Y-65079589D01*
X77573548Y-65034455D01*
X77728600Y-65071978D01*
X77728600Y-65071978D01*
G37*
X77728600Y-65071978D02*
X77847365Y-65166082D01*
X77943425Y-65268333D01*
X80931129Y-65268602D01*
X81489711Y-65269344D01*
X82071711Y-65271393D01*
X82663767Y-65274624D01*
X83252514Y-65278914D01*
X83824592Y-65284141D01*
X84366635Y-65290181D01*
X84865282Y-65296910D01*
X85307170Y-65304206D01*
X85678936Y-65311945D01*
X85707975Y-65312646D01*
X87497117Y-65356422D01*
X87597899Y-65239256D01*
X87729673Y-65145060D01*
X87889013Y-65116907D01*
X88049602Y-65155539D01*
X88149780Y-65223758D01*
X88242362Y-65362938D01*
X88265223Y-65523819D01*
X88219327Y-65681493D01*
X88127752Y-65793737D01*
X87973632Y-65883683D01*
X87815996Y-65891981D01*
X87750000Y-65873300D01*
X87667769Y-65827311D01*
X87609672Y-65782931D01*
X87580288Y-65765484D01*
X87531246Y-65749622D01*
X87458349Y-65735227D01*
X87357402Y-65722178D01*
X87224206Y-65710358D01*
X87054564Y-65699645D01*
X86844280Y-65689922D01*
X86589157Y-65681068D01*
X86284997Y-65672964D01*
X85927603Y-65665490D01*
X85512779Y-65658529D01*
X85036328Y-65651959D01*
X84494051Y-65645661D01*
X83881753Y-65639517D01*
X83195236Y-65633407D01*
X82430304Y-65627211D01*
X82026210Y-65624112D01*
X77932253Y-65593191D01*
X77855944Y-65687429D01*
X77745954Y-65766338D01*
X77610734Y-65804197D01*
X77441627Y-65792831D01*
X77309797Y-65721075D01*
X77220421Y-65606882D01*
X77178679Y-65468209D01*
X77189747Y-65323011D01*
X77258803Y-65189242D01*
X77391024Y-65084858D01*
X77401780Y-65079589D01*
X77573548Y-65034455D01*
X77728600Y-65071978D01*
G36*
X98187838Y-60077493D02*
X98266070Y-60149248D01*
X98358791Y-60308498D01*
X98367165Y-60464072D01*
X98291255Y-60613720D01*
X98251923Y-60657256D01*
X98099077Y-60759671D01*
X97933845Y-60780226D01*
X97766404Y-60718664D01*
X97701221Y-60671100D01*
X97570612Y-60561200D01*
X75649480Y-60590500D01*
X75548788Y-60685099D01*
X75405114Y-60773895D01*
X75240852Y-60806707D01*
X75107446Y-60782958D01*
X74978317Y-60687355D01*
X74902554Y-60546849D01*
X74885463Y-60386240D01*
X74932349Y-60230328D01*
X74975917Y-60168098D01*
X75117226Y-60061015D01*
X75277517Y-60029522D01*
X75437469Y-60075358D01*
X75502953Y-60120632D01*
X75633722Y-60230667D01*
X97580278Y-60230667D01*
X97706053Y-60124833D01*
X97868471Y-60032981D01*
X98034748Y-60017449D01*
X98187838Y-60077493D01*
X98187838Y-60077493D01*
G37*
X98187838Y-60077493D02*
X98266070Y-60149248D01*
X98358791Y-60308498D01*
X98367165Y-60464072D01*
X98291255Y-60613720D01*
X98251923Y-60657256D01*
X98099077Y-60759671D01*
X97933845Y-60780226D01*
X97766404Y-60718664D01*
X97701221Y-60671100D01*
X97570612Y-60561200D01*
X75649480Y-60590500D01*
X75548788Y-60685099D01*
X75405114Y-60773895D01*
X75240852Y-60806707D01*
X75107446Y-60782958D01*
X74978317Y-60687355D01*
X74902554Y-60546849D01*
X74885463Y-60386240D01*
X74932349Y-60230328D01*
X74975917Y-60168098D01*
X75117226Y-60061015D01*
X75277517Y-60029522D01*
X75437469Y-60075358D01*
X75502953Y-60120632D01*
X75633722Y-60230667D01*
X97580278Y-60230667D01*
X97706053Y-60124833D01*
X97868471Y-60032981D01*
X98034748Y-60017449D01*
X98187838Y-60077493D01*
G36*
X82951160Y-57557769D02*
X83099202Y-57634768D01*
X83152811Y-57685808D01*
X83233455Y-57775333D01*
X86243144Y-57775582D01*
X86802364Y-57776307D01*
X87383996Y-57778314D01*
X87974878Y-57781482D01*
X88561848Y-57785691D01*
X89131743Y-57790821D01*
X89671398Y-57796751D01*
X90167653Y-57803362D01*
X90607344Y-57810534D01*
X90977307Y-57818145D01*
X91021175Y-57819199D01*
X92789518Y-57862569D01*
X92883842Y-57754022D01*
X93002901Y-57664822D01*
X93128675Y-57621536D01*
X93246936Y-57617512D01*
X93346892Y-57659687D01*
X93414425Y-57711395D01*
X93520768Y-57847398D01*
X93557415Y-58001248D01*
X93529878Y-58152751D01*
X93443666Y-58281715D01*
X93304289Y-58367949D01*
X93230131Y-58386744D01*
X93118129Y-58393426D01*
X93041667Y-58381871D01*
X92959213Y-58334495D01*
X92901661Y-58290222D01*
X92871784Y-58272490D01*
X92821963Y-58256374D01*
X92748008Y-58241755D01*
X92645728Y-58228512D01*
X92510931Y-58216527D01*
X92339427Y-58205679D01*
X92127025Y-58195849D01*
X91869534Y-58186916D01*
X91562763Y-58178762D01*
X91202521Y-58171267D01*
X90784618Y-58164310D01*
X90304861Y-58157773D01*
X89759061Y-58151535D01*
X89143026Y-58145477D01*
X88452566Y-58139478D01*
X87683489Y-58133421D01*
X87316083Y-58130683D01*
X86585828Y-58125586D01*
X85936867Y-58121640D01*
X85365834Y-58118861D01*
X84869364Y-58117263D01*
X84444092Y-58116860D01*
X84086651Y-58117666D01*
X83793678Y-58119697D01*
X83561806Y-58122966D01*
X83387671Y-58127488D01*
X83267906Y-58133277D01*
X83199147Y-58140348D01*
X83178000Y-58148395D01*
X83141520Y-58202746D01*
X83051647Y-58260258D01*
X82937734Y-58306151D01*
X82829131Y-58325644D01*
X82825978Y-58325667D01*
X82688755Y-58287609D01*
X82567512Y-58189268D01*
X82488599Y-58054389D01*
X82477327Y-58011475D01*
X82479342Y-57836502D01*
X82544904Y-57695366D01*
X82656840Y-57596347D01*
X82797983Y-57547722D01*
X82951160Y-57557769D01*
X82951160Y-57557769D01*
G37*
X82951160Y-57557769D02*
X83099202Y-57634768D01*
X83152811Y-57685808D01*
X83233455Y-57775333D01*
X86243144Y-57775582D01*
X86802364Y-57776307D01*
X87383996Y-57778314D01*
X87974878Y-57781482D01*
X88561848Y-57785691D01*
X89131743Y-57790821D01*
X89671398Y-57796751D01*
X90167653Y-57803362D01*
X90607344Y-57810534D01*
X90977307Y-57818145D01*
X91021175Y-57819199D01*
X92789518Y-57862569D01*
X92883842Y-57754022D01*
X93002901Y-57664822D01*
X93128675Y-57621536D01*
X93246936Y-57617512D01*
X93346892Y-57659687D01*
X93414425Y-57711395D01*
X93520768Y-57847398D01*
X93557415Y-58001248D01*
X93529878Y-58152751D01*
X93443666Y-58281715D01*
X93304289Y-58367949D01*
X93230131Y-58386744D01*
X93118129Y-58393426D01*
X93041667Y-58381871D01*
X92959213Y-58334495D01*
X92901661Y-58290222D01*
X92871784Y-58272490D01*
X92821963Y-58256374D01*
X92748008Y-58241755D01*
X92645728Y-58228512D01*
X92510931Y-58216527D01*
X92339427Y-58205679D01*
X92127025Y-58195849D01*
X91869534Y-58186916D01*
X91562763Y-58178762D01*
X91202521Y-58171267D01*
X90784618Y-58164310D01*
X90304861Y-58157773D01*
X89759061Y-58151535D01*
X89143026Y-58145477D01*
X88452566Y-58139478D01*
X87683489Y-58133421D01*
X87316083Y-58130683D01*
X86585828Y-58125586D01*
X85936867Y-58121640D01*
X85365834Y-58118861D01*
X84869364Y-58117263D01*
X84444092Y-58116860D01*
X84086651Y-58117666D01*
X83793678Y-58119697D01*
X83561806Y-58122966D01*
X83387671Y-58127488D01*
X83267906Y-58133277D01*
X83199147Y-58140348D01*
X83178000Y-58148395D01*
X83141520Y-58202746D01*
X83051647Y-58260258D01*
X82937734Y-58306151D01*
X82829131Y-58325644D01*
X82825978Y-58325667D01*
X82688755Y-58287609D01*
X82567512Y-58189268D01*
X82488599Y-58054389D01*
X82477327Y-58011475D01*
X82479342Y-57836502D01*
X82544904Y-57695366D01*
X82656840Y-57596347D01*
X82797983Y-57547722D01*
X82951160Y-57557769D01*
G36*
X70225393Y-57396064D02*
X70257366Y-57410863D01*
X70348650Y-57466929D01*
X70398668Y-57514372D01*
X70400092Y-57517551D01*
X70444612Y-57525408D01*
X70570136Y-57533266D01*
X70772997Y-57541050D01*
X71049533Y-57548687D01*
X71396079Y-57556102D01*
X71808972Y-57563220D01*
X72284546Y-57569969D01*
X72819139Y-57576273D01*
X73409085Y-57582059D01*
X73716500Y-57584676D01*
X74283411Y-57589657D01*
X74859617Y-57595433D01*
X75434383Y-57601856D01*
X75996972Y-57608776D01*
X76536649Y-57616043D01*
X77042678Y-57623507D01*
X77504323Y-57631020D01*
X77910848Y-57638431D01*
X78251517Y-57645591D01*
X78457833Y-57650719D01*
X78845401Y-57661093D01*
X79157095Y-57668697D01*
X79401672Y-57673305D01*
X79587886Y-57674692D01*
X79724492Y-57672630D01*
X79820247Y-57666895D01*
X79883904Y-57657260D01*
X79924221Y-57643498D01*
X79949950Y-57625384D01*
X79962419Y-57611867D01*
X80111166Y-57486939D01*
X80275073Y-57441447D01*
X80442197Y-57476724D01*
X80550085Y-57546263D01*
X80654956Y-57681758D01*
X80688316Y-57835710D01*
X80653612Y-57987209D01*
X80554290Y-58115345D01*
X80445452Y-58181084D01*
X80348946Y-58219535D01*
X80293659Y-58238015D01*
X80290110Y-58238316D01*
X80246546Y-58222479D01*
X80173204Y-58193754D01*
X80065926Y-58138273D01*
X80002330Y-58092227D01*
X79938854Y-58073062D01*
X79794134Y-58054920D01*
X79571588Y-58037879D01*
X79274631Y-58022017D01*
X78906683Y-58007412D01*
X78471159Y-57994139D01*
X77971478Y-57982278D01*
X77411055Y-57971904D01*
X76793310Y-57963097D01*
X76121658Y-57955932D01*
X75399518Y-57950488D01*
X74630306Y-57946843D01*
X73817440Y-57945072D01*
X73500811Y-57944908D01*
X72914658Y-57944926D01*
X72407322Y-57945178D01*
X71972954Y-57945813D01*
X71605705Y-57946979D01*
X71299724Y-57948826D01*
X71049164Y-57951502D01*
X70848175Y-57955156D01*
X70690906Y-57959937D01*
X70571510Y-57965993D01*
X70484136Y-57973475D01*
X70422935Y-57982530D01*
X70382058Y-57993308D01*
X70355656Y-58005957D01*
X70337879Y-58020626D01*
X70333279Y-58025526D01*
X70203803Y-58119786D01*
X70065049Y-58144280D01*
X69930156Y-58110884D01*
X69812264Y-58031476D01*
X69724512Y-57917934D01*
X69680039Y-57782135D01*
X69691986Y-57635958D01*
X69760168Y-57507450D01*
X69891069Y-57404214D01*
X70055280Y-57365310D01*
X70225393Y-57396064D01*
X70225393Y-57396064D01*
G37*
X70225393Y-57396064D02*
X70257366Y-57410863D01*
X70348650Y-57466929D01*
X70398668Y-57514372D01*
X70400092Y-57517551D01*
X70444612Y-57525408D01*
X70570136Y-57533266D01*
X70772997Y-57541050D01*
X71049533Y-57548687D01*
X71396079Y-57556102D01*
X71808972Y-57563220D01*
X72284546Y-57569969D01*
X72819139Y-57576273D01*
X73409085Y-57582059D01*
X73716500Y-57584676D01*
X74283411Y-57589657D01*
X74859617Y-57595433D01*
X75434383Y-57601856D01*
X75996972Y-57608776D01*
X76536649Y-57616043D01*
X77042678Y-57623507D01*
X77504323Y-57631020D01*
X77910848Y-57638431D01*
X78251517Y-57645591D01*
X78457833Y-57650719D01*
X78845401Y-57661093D01*
X79157095Y-57668697D01*
X79401672Y-57673305D01*
X79587886Y-57674692D01*
X79724492Y-57672630D01*
X79820247Y-57666895D01*
X79883904Y-57657260D01*
X79924221Y-57643498D01*
X79949950Y-57625384D01*
X79962419Y-57611867D01*
X80111166Y-57486939D01*
X80275073Y-57441447D01*
X80442197Y-57476724D01*
X80550085Y-57546263D01*
X80654956Y-57681758D01*
X80688316Y-57835710D01*
X80653612Y-57987209D01*
X80554290Y-58115345D01*
X80445452Y-58181084D01*
X80348946Y-58219535D01*
X80293659Y-58238015D01*
X80290110Y-58238316D01*
X80246546Y-58222479D01*
X80173204Y-58193754D01*
X80065926Y-58138273D01*
X80002330Y-58092227D01*
X79938854Y-58073062D01*
X79794134Y-58054920D01*
X79571588Y-58037879D01*
X79274631Y-58022017D01*
X78906683Y-58007412D01*
X78471159Y-57994139D01*
X77971478Y-57982278D01*
X77411055Y-57971904D01*
X76793310Y-57963097D01*
X76121658Y-57955932D01*
X75399518Y-57950488D01*
X74630306Y-57946843D01*
X73817440Y-57945072D01*
X73500811Y-57944908D01*
X72914658Y-57944926D01*
X72407322Y-57945178D01*
X71972954Y-57945813D01*
X71605705Y-57946979D01*
X71299724Y-57948826D01*
X71049164Y-57951502D01*
X70848175Y-57955156D01*
X70690906Y-57959937D01*
X70571510Y-57965993D01*
X70484136Y-57973475D01*
X70422935Y-57982530D01*
X70382058Y-57993308D01*
X70355656Y-58005957D01*
X70337879Y-58020626D01*
X70333279Y-58025526D01*
X70203803Y-58119786D01*
X70065049Y-58144280D01*
X69930156Y-58110884D01*
X69812264Y-58031476D01*
X69724512Y-57917934D01*
X69680039Y-57782135D01*
X69691986Y-57635958D01*
X69760168Y-57507450D01*
X69891069Y-57404214D01*
X70055280Y-57365310D01*
X70225393Y-57396064D01*
G36*
X93364903Y-55135389D02*
X93398849Y-55165334D01*
X93498183Y-55264668D01*
X96159175Y-55295462D01*
X96655112Y-55301581D01*
X97148410Y-55308386D01*
X97628677Y-55315687D01*
X98085518Y-55323295D01*
X98508540Y-55331021D01*
X98887348Y-55338677D01*
X99211548Y-55346074D01*
X99470748Y-55353022D01*
X99638602Y-55358686D01*
X100457037Y-55391117D01*
X100577262Y-55270892D01*
X100727803Y-55170996D01*
X100888510Y-55147716D01*
X101040550Y-55198121D01*
X101165086Y-55319283D01*
X101193080Y-55366678D01*
X101237867Y-55534674D01*
X101204297Y-55695143D01*
X101097207Y-55827484D01*
X100964321Y-55892974D01*
X100812858Y-55911784D01*
X100675374Y-55883482D01*
X100603620Y-55834026D01*
X100580046Y-55812416D01*
X100547285Y-55793278D01*
X100500040Y-55776374D01*
X100433013Y-55761465D01*
X100340907Y-55748315D01*
X100218425Y-55736684D01*
X100060268Y-55726334D01*
X99861139Y-55717028D01*
X99615740Y-55708528D01*
X99318774Y-55700595D01*
X98964943Y-55692991D01*
X98548950Y-55685478D01*
X98065496Y-55677819D01*
X97509284Y-55669774D01*
X96875017Y-55661106D01*
X96705712Y-55658842D01*
X93532925Y-55616532D01*
X93418308Y-55726342D01*
X93264104Y-55825330D01*
X93102438Y-55842739D01*
X92946479Y-55779106D01*
X92862439Y-55703728D01*
X92781764Y-55598981D01*
X92753399Y-55507733D01*
X92760475Y-55409438D01*
X92820706Y-55250686D01*
X92931294Y-55136246D01*
X93072209Y-55073778D01*
X93223422Y-55070939D01*
X93364903Y-55135389D01*
X93364903Y-55135389D01*
G37*
X93364903Y-55135389D02*
X93398849Y-55165334D01*
X93498183Y-55264668D01*
X96159175Y-55295462D01*
X96655112Y-55301581D01*
X97148410Y-55308386D01*
X97628677Y-55315687D01*
X98085518Y-55323295D01*
X98508540Y-55331021D01*
X98887348Y-55338677D01*
X99211548Y-55346074D01*
X99470748Y-55353022D01*
X99638602Y-55358686D01*
X100457037Y-55391117D01*
X100577262Y-55270892D01*
X100727803Y-55170996D01*
X100888510Y-55147716D01*
X101040550Y-55198121D01*
X101165086Y-55319283D01*
X101193080Y-55366678D01*
X101237867Y-55534674D01*
X101204297Y-55695143D01*
X101097207Y-55827484D01*
X100964321Y-55892974D01*
X100812858Y-55911784D01*
X100675374Y-55883482D01*
X100603620Y-55834026D01*
X100580046Y-55812416D01*
X100547285Y-55793278D01*
X100500040Y-55776374D01*
X100433013Y-55761465D01*
X100340907Y-55748315D01*
X100218425Y-55736684D01*
X100060268Y-55726334D01*
X99861139Y-55717028D01*
X99615740Y-55708528D01*
X99318774Y-55700595D01*
X98964943Y-55692991D01*
X98548950Y-55685478D01*
X98065496Y-55677819D01*
X97509284Y-55669774D01*
X96875017Y-55661106D01*
X96705712Y-55658842D01*
X93532925Y-55616532D01*
X93418308Y-55726342D01*
X93264104Y-55825330D01*
X93102438Y-55842739D01*
X92946479Y-55779106D01*
X92862439Y-55703728D01*
X92781764Y-55598981D01*
X92753399Y-55507733D01*
X92760475Y-55409438D01*
X92820706Y-55250686D01*
X92931294Y-55136246D01*
X93072209Y-55073778D01*
X93223422Y-55070939D01*
X93364903Y-55135389D01*
G36*
X82884835Y-47311399D02*
X83010566Y-47404655D01*
X83082166Y-47540022D01*
X83092274Y-47701088D01*
X83033527Y-47871441D01*
X83001591Y-47921603D01*
X82909849Y-48050443D01*
X82988395Y-50113891D01*
X83006730Y-50605410D01*
X83021257Y-51020762D01*
X83032057Y-51368358D01*
X83039212Y-51656609D01*
X83042804Y-51893926D01*
X83042914Y-52088719D01*
X83039625Y-52249399D01*
X83033019Y-52384377D01*
X83023176Y-52502064D01*
X83012505Y-52593422D01*
X82906136Y-53147422D01*
X82739382Y-53642147D01*
X82511601Y-54078311D01*
X82222154Y-54456631D01*
X81870401Y-54777820D01*
X81455701Y-55042594D01*
X80977415Y-55251669D01*
X80511000Y-55388359D01*
X80448381Y-55401854D01*
X80377918Y-55413714D01*
X80293819Y-55424074D01*
X80190289Y-55433066D01*
X80061535Y-55440826D01*
X79901762Y-55447487D01*
X79705177Y-55453184D01*
X79465986Y-55458051D01*
X79178395Y-55462222D01*
X78836611Y-55465832D01*
X78434839Y-55469014D01*
X77967286Y-55471902D01*
X77428158Y-55474632D01*
X76811661Y-55477336D01*
X76638281Y-55478051D01*
X76002065Y-55480773D01*
X75445263Y-55483490D01*
X74962624Y-55486318D01*
X74548895Y-55489375D01*
X74198825Y-55492778D01*
X73907160Y-55496645D01*
X73668650Y-55501094D01*
X73478042Y-55506242D01*
X73330084Y-55512207D01*
X73219523Y-55519105D01*
X73141109Y-55527055D01*
X73089589Y-55536173D01*
X73059710Y-55546579D01*
X73046221Y-55558388D01*
X73046208Y-55558410D01*
X72985866Y-55614196D01*
X72881611Y-55675810D01*
X72770470Y-55724239D01*
X72691276Y-55740650D01*
X72628574Y-55723841D01*
X72573500Y-55703313D01*
X72433775Y-55607613D01*
X72346856Y-55470238D01*
X72317292Y-55313651D01*
X72349633Y-55160318D01*
X72439239Y-55040340D01*
X72591900Y-54955697D01*
X72757788Y-54938233D01*
X72911327Y-54987770D01*
X72981807Y-55044102D01*
X73081500Y-55149204D01*
X76363444Y-55149935D01*
X77015867Y-55149470D01*
X77615475Y-55147806D01*
X78158305Y-55144990D01*
X78640396Y-55141069D01*
X79057788Y-55136092D01*
X79406518Y-55130105D01*
X79682626Y-55123157D01*
X79882149Y-55115295D01*
X80001128Y-55106566D01*
X80004110Y-55106205D01*
X80552042Y-55006010D01*
X81037336Y-54848928D01*
X81460206Y-54634799D01*
X81820863Y-54363465D01*
X82119523Y-54034770D01*
X82356396Y-53648554D01*
X82521810Y-53236400D01*
X82569833Y-53075064D01*
X82609541Y-52915120D01*
X82641233Y-52748164D01*
X82665210Y-52565797D01*
X82681772Y-52359615D01*
X82691221Y-52121218D01*
X82693855Y-51842203D01*
X82689976Y-51514170D01*
X82679885Y-51128716D01*
X82663880Y-50677440D01*
X82642264Y-50151940D01*
X82636693Y-50023440D01*
X82550532Y-48050047D01*
X82440933Y-47940448D01*
X82359032Y-47826066D01*
X82331739Y-47683908D01*
X82331333Y-47657667D01*
X82365394Y-47477429D01*
X82463141Y-47350969D01*
X82617920Y-47284942D01*
X82712333Y-47276667D01*
X82884835Y-47311399D01*
X82884835Y-47311399D01*
G37*
X82884835Y-47311399D02*
X83010566Y-47404655D01*
X83082166Y-47540022D01*
X83092274Y-47701088D01*
X83033527Y-47871441D01*
X83001591Y-47921603D01*
X82909849Y-48050443D01*
X82988395Y-50113891D01*
X83006730Y-50605410D01*
X83021257Y-51020762D01*
X83032057Y-51368358D01*
X83039212Y-51656609D01*
X83042804Y-51893926D01*
X83042914Y-52088719D01*
X83039625Y-52249399D01*
X83033019Y-52384377D01*
X83023176Y-52502064D01*
X83012505Y-52593422D01*
X82906136Y-53147422D01*
X82739382Y-53642147D01*
X82511601Y-54078311D01*
X82222154Y-54456631D01*
X81870401Y-54777820D01*
X81455701Y-55042594D01*
X80977415Y-55251669D01*
X80511000Y-55388359D01*
X80448381Y-55401854D01*
X80377918Y-55413714D01*
X80293819Y-55424074D01*
X80190289Y-55433066D01*
X80061535Y-55440826D01*
X79901762Y-55447487D01*
X79705177Y-55453184D01*
X79465986Y-55458051D01*
X79178395Y-55462222D01*
X78836611Y-55465832D01*
X78434839Y-55469014D01*
X77967286Y-55471902D01*
X77428158Y-55474632D01*
X76811661Y-55477336D01*
X76638281Y-55478051D01*
X76002065Y-55480773D01*
X75445263Y-55483490D01*
X74962624Y-55486318D01*
X74548895Y-55489375D01*
X74198825Y-55492778D01*
X73907160Y-55496645D01*
X73668650Y-55501094D01*
X73478042Y-55506242D01*
X73330084Y-55512207D01*
X73219523Y-55519105D01*
X73141109Y-55527055D01*
X73089589Y-55536173D01*
X73059710Y-55546579D01*
X73046221Y-55558388D01*
X73046208Y-55558410D01*
X72985866Y-55614196D01*
X72881611Y-55675810D01*
X72770470Y-55724239D01*
X72691276Y-55740650D01*
X72628574Y-55723841D01*
X72573500Y-55703313D01*
X72433775Y-55607613D01*
X72346856Y-55470238D01*
X72317292Y-55313651D01*
X72349633Y-55160318D01*
X72439239Y-55040340D01*
X72591900Y-54955697D01*
X72757788Y-54938233D01*
X72911327Y-54987770D01*
X72981807Y-55044102D01*
X73081500Y-55149204D01*
X76363444Y-55149935D01*
X77015867Y-55149470D01*
X77615475Y-55147806D01*
X78158305Y-55144990D01*
X78640396Y-55141069D01*
X79057788Y-55136092D01*
X79406518Y-55130105D01*
X79682626Y-55123157D01*
X79882149Y-55115295D01*
X80001128Y-55106566D01*
X80004110Y-55106205D01*
X80552042Y-55006010D01*
X81037336Y-54848928D01*
X81460206Y-54634799D01*
X81820863Y-54363465D01*
X82119523Y-54034770D01*
X82356396Y-53648554D01*
X82521810Y-53236400D01*
X82569833Y-53075064D01*
X82609541Y-52915120D01*
X82641233Y-52748164D01*
X82665210Y-52565797D01*
X82681772Y-52359615D01*
X82691221Y-52121218D01*
X82693855Y-51842203D01*
X82689976Y-51514170D01*
X82679885Y-51128716D01*
X82663880Y-50677440D01*
X82642264Y-50151940D01*
X82636693Y-50023440D01*
X82550532Y-48050047D01*
X82440933Y-47940448D01*
X82359032Y-47826066D01*
X82331739Y-47683908D01*
X82331333Y-47657667D01*
X82365394Y-47477429D01*
X82463141Y-47350969D01*
X82617920Y-47284942D01*
X82712333Y-47276667D01*
X82884835Y-47311399D01*
G36*
X55139486Y-47405253D02*
X55218757Y-47465242D01*
X55303354Y-47603426D01*
X55326199Y-47766813D01*
X55286991Y-47924769D01*
X55224142Y-48014039D01*
X55125618Y-48112563D01*
X55144038Y-50372198D01*
X55162457Y-52631833D01*
X55273350Y-52750025D01*
X55368291Y-52902466D01*
X55390216Y-53061959D01*
X55346954Y-53210419D01*
X55246338Y-53329761D01*
X55096200Y-53401899D01*
X54985402Y-53415000D01*
X54855834Y-53398257D01*
X54757594Y-53333919D01*
X54712596Y-53284752D01*
X54621529Y-53126247D01*
X54615106Y-52967398D01*
X54693331Y-52807628D01*
X54715477Y-52779824D01*
X54827955Y-52646152D01*
X54797977Y-50384500D01*
X54767999Y-48122847D01*
X54664333Y-48019181D01*
X54576605Y-47877047D01*
X54558619Y-47713356D01*
X54609997Y-47554009D01*
X54672273Y-47472939D01*
X54817116Y-47380980D01*
X54981467Y-47358297D01*
X55139486Y-47405253D01*
X55139486Y-47405253D01*
G37*
X55139486Y-47405253D02*
X55218757Y-47465242D01*
X55303354Y-47603426D01*
X55326199Y-47766813D01*
X55286991Y-47924769D01*
X55224142Y-48014039D01*
X55125618Y-48112563D01*
X55144038Y-50372198D01*
X55162457Y-52631833D01*
X55273350Y-52750025D01*
X55368291Y-52902466D01*
X55390216Y-53061959D01*
X55346954Y-53210419D01*
X55246338Y-53329761D01*
X55096200Y-53401899D01*
X54985402Y-53415000D01*
X54855834Y-53398257D01*
X54757594Y-53333919D01*
X54712596Y-53284752D01*
X54621529Y-53126247D01*
X54615106Y-52967398D01*
X54693331Y-52807628D01*
X54715477Y-52779824D01*
X54827955Y-52646152D01*
X54797977Y-50384500D01*
X54767999Y-48122847D01*
X54664333Y-48019181D01*
X54576605Y-47877047D01*
X54558619Y-47713356D01*
X54609997Y-47554009D01*
X54672273Y-47472939D01*
X54817116Y-47380980D01*
X54981467Y-47358297D01*
X55139486Y-47405253D01*
G36*
X57622806Y-47420666D02*
X57679427Y-47462674D01*
X57773978Y-47594747D01*
X57802455Y-47754296D01*
X57764044Y-47914857D01*
X57696397Y-48014239D01*
X57595551Y-48121584D01*
X57643293Y-52652786D01*
X57752980Y-52783141D01*
X57841143Y-52944277D01*
X57851831Y-53112203D01*
X57786850Y-53268279D01*
X57697002Y-53360737D01*
X57594458Y-53399981D01*
X57453802Y-53410480D01*
X57316771Y-53391636D01*
X57255450Y-53367056D01*
X57186472Y-53298140D01*
X57122977Y-53191009D01*
X57118145Y-53179868D01*
X57086656Y-53007354D01*
X57138119Y-52835034D01*
X57220472Y-52716500D01*
X57236269Y-52692768D01*
X57249420Y-52657438D01*
X57260072Y-52603598D01*
X57268373Y-52524333D01*
X57274469Y-52412731D01*
X57278508Y-52261878D01*
X57280638Y-52064860D01*
X57281006Y-51814763D01*
X57279760Y-51504676D01*
X57277046Y-51127683D01*
X57273013Y-50676871D01*
X57270191Y-50385240D01*
X57248078Y-48138646D01*
X57132039Y-48000742D01*
X57035275Y-47839064D01*
X57022891Y-47684065D01*
X57094892Y-47535396D01*
X57139743Y-47485077D01*
X57292825Y-47383340D01*
X57458882Y-47361661D01*
X57622806Y-47420666D01*
X57622806Y-47420666D01*
G37*
X57622806Y-47420666D02*
X57679427Y-47462674D01*
X57773978Y-47594747D01*
X57802455Y-47754296D01*
X57764044Y-47914857D01*
X57696397Y-48014239D01*
X57595551Y-48121584D01*
X57643293Y-52652786D01*
X57752980Y-52783141D01*
X57841143Y-52944277D01*
X57851831Y-53112203D01*
X57786850Y-53268279D01*
X57697002Y-53360737D01*
X57594458Y-53399981D01*
X57453802Y-53410480D01*
X57316771Y-53391636D01*
X57255450Y-53367056D01*
X57186472Y-53298140D01*
X57122977Y-53191009D01*
X57118145Y-53179868D01*
X57086656Y-53007354D01*
X57138119Y-52835034D01*
X57220472Y-52716500D01*
X57236269Y-52692768D01*
X57249420Y-52657438D01*
X57260072Y-52603598D01*
X57268373Y-52524333D01*
X57274469Y-52412731D01*
X57278508Y-52261878D01*
X57280638Y-52064860D01*
X57281006Y-51814763D01*
X57279760Y-51504676D01*
X57277046Y-51127683D01*
X57273013Y-50676871D01*
X57270191Y-50385240D01*
X57248078Y-48138646D01*
X57132039Y-48000742D01*
X57035275Y-47839064D01*
X57022891Y-47684065D01*
X57094892Y-47535396D01*
X57139743Y-47485077D01*
X57292825Y-47383340D01*
X57458882Y-47361661D01*
X57622806Y-47420666D01*
G36*
X70432928Y-42251999D02*
X70471465Y-42276282D01*
X70513876Y-42301289D01*
X70569347Y-42320992D01*
X70648655Y-42336318D01*
X70762577Y-42348195D01*
X70921889Y-42357550D01*
X71137368Y-42365312D01*
X71419791Y-42372409D01*
X71642167Y-42377060D01*
X72024665Y-42386369D01*
X72338945Y-42398210D01*
X72601447Y-42413769D01*
X72828608Y-42434235D01*
X73036866Y-42460793D01*
X73224232Y-42491333D01*
X74002804Y-42657422D01*
X74716699Y-42866847D01*
X75364430Y-43118575D01*
X75944509Y-43411579D01*
X76455450Y-43744829D01*
X76895767Y-44117293D01*
X77263972Y-44527944D01*
X77558579Y-44975751D01*
X77778101Y-45459685D01*
X77854599Y-45698195D01*
X77871833Y-45761255D01*
X77886817Y-45823419D01*
X77899739Y-45890884D01*
X77910784Y-45969847D01*
X77920138Y-46066506D01*
X77927988Y-46187057D01*
X77934519Y-46337698D01*
X77939918Y-46524625D01*
X77944370Y-46754035D01*
X77948063Y-47032126D01*
X77951181Y-47365094D01*
X77953911Y-47759137D01*
X77956439Y-48220450D01*
X77958952Y-48755233D01*
X77961094Y-49244563D01*
X77974992Y-52461292D01*
X78067284Y-52559532D01*
X78147510Y-52700552D01*
X78162164Y-52862523D01*
X78112623Y-53016166D01*
X78041760Y-53101993D01*
X77885726Y-53186980D01*
X77717147Y-53197383D01*
X77559152Y-53132925D01*
X77527431Y-53108083D01*
X77420070Y-52966457D01*
X77388892Y-52805954D01*
X77435545Y-52645421D01*
X77481219Y-52579557D01*
X77592508Y-52447297D01*
X77580670Y-49174065D01*
X77568833Y-45900833D01*
X77455413Y-45590335D01*
X77290857Y-45210360D01*
X77085102Y-44873086D01*
X76818843Y-44547344D01*
X76790259Y-44516464D01*
X76371454Y-44127942D01*
X75883656Y-43782884D01*
X75331423Y-43482813D01*
X74719310Y-43229255D01*
X74051876Y-43023733D01*
X73333678Y-42867771D01*
X72569271Y-42762894D01*
X71763213Y-42710625D01*
X71373660Y-42704667D01*
X70638969Y-42704667D01*
X70520333Y-42831667D01*
X70379892Y-42932030D01*
X70225296Y-42965490D01*
X70075502Y-42938600D01*
X69949469Y-42857914D01*
X69866154Y-42729986D01*
X69843000Y-42597501D01*
X69879520Y-42430529D01*
X69976157Y-42302586D01*
X70113527Y-42223578D01*
X70272245Y-42203413D01*
X70432928Y-42251999D01*
X70432928Y-42251999D01*
G37*
X70432928Y-42251999D02*
X70471465Y-42276282D01*
X70513876Y-42301289D01*
X70569347Y-42320992D01*
X70648655Y-42336318D01*
X70762577Y-42348195D01*
X70921889Y-42357550D01*
X71137368Y-42365312D01*
X71419791Y-42372409D01*
X71642167Y-42377060D01*
X72024665Y-42386369D01*
X72338945Y-42398210D01*
X72601447Y-42413769D01*
X72828608Y-42434235D01*
X73036866Y-42460793D01*
X73224232Y-42491333D01*
X74002804Y-42657422D01*
X74716699Y-42866847D01*
X75364430Y-43118575D01*
X75944509Y-43411579D01*
X76455450Y-43744829D01*
X76895767Y-44117293D01*
X77263972Y-44527944D01*
X77558579Y-44975751D01*
X77778101Y-45459685D01*
X77854599Y-45698195D01*
X77871833Y-45761255D01*
X77886817Y-45823419D01*
X77899739Y-45890884D01*
X77910784Y-45969847D01*
X77920138Y-46066506D01*
X77927988Y-46187057D01*
X77934519Y-46337698D01*
X77939918Y-46524625D01*
X77944370Y-46754035D01*
X77948063Y-47032126D01*
X77951181Y-47365094D01*
X77953911Y-47759137D01*
X77956439Y-48220450D01*
X77958952Y-48755233D01*
X77961094Y-49244563D01*
X77974992Y-52461292D01*
X78067284Y-52559532D01*
X78147510Y-52700552D01*
X78162164Y-52862523D01*
X78112623Y-53016166D01*
X78041760Y-53101993D01*
X77885726Y-53186980D01*
X77717147Y-53197383D01*
X77559152Y-53132925D01*
X77527431Y-53108083D01*
X77420070Y-52966457D01*
X77388892Y-52805954D01*
X77435545Y-52645421D01*
X77481219Y-52579557D01*
X77592508Y-52447297D01*
X77580670Y-49174065D01*
X77568833Y-45900833D01*
X77455413Y-45590335D01*
X77290857Y-45210360D01*
X77085102Y-44873086D01*
X76818843Y-44547344D01*
X76790259Y-44516464D01*
X76371454Y-44127942D01*
X75883656Y-43782884D01*
X75331423Y-43482813D01*
X74719310Y-43229255D01*
X74051876Y-43023733D01*
X73333678Y-42867771D01*
X72569271Y-42762894D01*
X71763213Y-42710625D01*
X71373660Y-42704667D01*
X70638969Y-42704667D01*
X70520333Y-42831667D01*
X70379892Y-42932030D01*
X70225296Y-42965490D01*
X70075502Y-42938600D01*
X69949469Y-42857914D01*
X69866154Y-42729986D01*
X69843000Y-42597501D01*
X69879520Y-42430529D01*
X69976157Y-42302586D01*
X70113527Y-42223578D01*
X70272245Y-42203413D01*
X70432928Y-42251999D01*
G36*
X88275111Y-44708077D02*
X88339086Y-44739741D01*
X88411424Y-44778372D01*
X88477231Y-44803464D01*
X88554060Y-44816156D01*
X88659462Y-44817583D01*
X88810989Y-44808884D01*
X89026194Y-44791196D01*
X89072007Y-44787235D01*
X89306406Y-44770585D01*
X89516314Y-44762471D01*
X89681772Y-44763288D01*
X89782000Y-44773235D01*
X90034538Y-44865272D01*
X90251343Y-45017275D01*
X90435236Y-45233540D01*
X90589037Y-45518362D01*
X90715567Y-45876037D01*
X90817645Y-46310860D01*
X90828034Y-46366500D01*
X90841966Y-46453391D01*
X90854169Y-46555394D01*
X90864817Y-46678930D01*
X90874082Y-46830422D01*
X90882140Y-47016291D01*
X90889163Y-47242960D01*
X90895326Y-47516852D01*
X90900802Y-47844387D01*
X90905766Y-48231988D01*
X90910391Y-48686078D01*
X90914851Y-49213078D01*
X90918555Y-49710833D01*
X90922070Y-50207916D01*
X90925396Y-50682923D01*
X90928485Y-51128635D01*
X90931289Y-51537832D01*
X90933758Y-51903293D01*
X90935844Y-52217798D01*
X90937499Y-52474126D01*
X90938675Y-52665057D01*
X90939322Y-52783371D01*
X90939435Y-52818385D01*
X90901094Y-52970460D01*
X90796892Y-53085974D01*
X90642456Y-53151337D01*
X90545402Y-53161000D01*
X90415834Y-53144257D01*
X90317594Y-53079919D01*
X90272596Y-53030752D01*
X90179876Y-52871502D01*
X90171501Y-52715928D01*
X90247411Y-52566279D01*
X90286743Y-52522743D01*
X90380345Y-52444347D01*
X90460919Y-52401634D01*
X90477243Y-52399000D01*
X90490646Y-52392747D01*
X90502144Y-52370041D01*
X90511880Y-52324962D01*
X90519997Y-52251586D01*
X90526637Y-52143994D01*
X90531942Y-51996265D01*
X90536056Y-51802476D01*
X90539121Y-51556707D01*
X90541279Y-51253036D01*
X90542673Y-50885542D01*
X90543446Y-50448305D01*
X90543739Y-49935402D01*
X90543750Y-49636750D01*
X90543359Y-49031445D01*
X90542046Y-48503977D01*
X90539429Y-48047520D01*
X90535122Y-47655245D01*
X90528742Y-47320326D01*
X90519906Y-47035934D01*
X90508229Y-46795243D01*
X90493329Y-46591424D01*
X90474820Y-46417652D01*
X90452319Y-46267097D01*
X90425443Y-46132933D01*
X90393808Y-46008333D01*
X90357029Y-45886468D01*
X90328028Y-45799160D01*
X90211088Y-45543906D01*
X90038360Y-45323568D01*
X90037727Y-45322910D01*
X89839898Y-45117667D01*
X89504032Y-45119949D01*
X89129260Y-45130071D01*
X88833045Y-45155316D01*
X88610499Y-45196474D01*
X88456734Y-45254337D01*
X88392913Y-45299785D01*
X88231153Y-45411741D01*
X88068595Y-45439525D01*
X87925148Y-45395840D01*
X87785572Y-45282664D01*
X87713930Y-45134227D01*
X87714602Y-44970204D01*
X87791967Y-44810270D01*
X87794168Y-44807450D01*
X87927535Y-44699400D01*
X88091865Y-44665777D01*
X88275111Y-44708077D01*
X88275111Y-44708077D01*
G37*
X88275111Y-44708077D02*
X88339086Y-44739741D01*
X88411424Y-44778372D01*
X88477231Y-44803464D01*
X88554060Y-44816156D01*
X88659462Y-44817583D01*
X88810989Y-44808884D01*
X89026194Y-44791196D01*
X89072007Y-44787235D01*
X89306406Y-44770585D01*
X89516314Y-44762471D01*
X89681772Y-44763288D01*
X89782000Y-44773235D01*
X90034538Y-44865272D01*
X90251343Y-45017275D01*
X90435236Y-45233540D01*
X90589037Y-45518362D01*
X90715567Y-45876037D01*
X90817645Y-46310860D01*
X90828034Y-46366500D01*
X90841966Y-46453391D01*
X90854169Y-46555394D01*
X90864817Y-46678930D01*
X90874082Y-46830422D01*
X90882140Y-47016291D01*
X90889163Y-47242960D01*
X90895326Y-47516852D01*
X90900802Y-47844387D01*
X90905766Y-48231988D01*
X90910391Y-48686078D01*
X90914851Y-49213078D01*
X90918555Y-49710833D01*
X90922070Y-50207916D01*
X90925396Y-50682923D01*
X90928485Y-51128635D01*
X90931289Y-51537832D01*
X90933758Y-51903293D01*
X90935844Y-52217798D01*
X90937499Y-52474126D01*
X90938675Y-52665057D01*
X90939322Y-52783371D01*
X90939435Y-52818385D01*
X90901094Y-52970460D01*
X90796892Y-53085974D01*
X90642456Y-53151337D01*
X90545402Y-53161000D01*
X90415834Y-53144257D01*
X90317594Y-53079919D01*
X90272596Y-53030752D01*
X90179876Y-52871502D01*
X90171501Y-52715928D01*
X90247411Y-52566279D01*
X90286743Y-52522743D01*
X90380345Y-52444347D01*
X90460919Y-52401634D01*
X90477243Y-52399000D01*
X90490646Y-52392747D01*
X90502144Y-52370041D01*
X90511880Y-52324962D01*
X90519997Y-52251586D01*
X90526637Y-52143994D01*
X90531942Y-51996265D01*
X90536056Y-51802476D01*
X90539121Y-51556707D01*
X90541279Y-51253036D01*
X90542673Y-50885542D01*
X90543446Y-50448305D01*
X90543739Y-49935402D01*
X90543750Y-49636750D01*
X90543359Y-49031445D01*
X90542046Y-48503977D01*
X90539429Y-48047520D01*
X90535122Y-47655245D01*
X90528742Y-47320326D01*
X90519906Y-47035934D01*
X90508229Y-46795243D01*
X90493329Y-46591424D01*
X90474820Y-46417652D01*
X90452319Y-46267097D01*
X90425443Y-46132933D01*
X90393808Y-46008333D01*
X90357029Y-45886468D01*
X90328028Y-45799160D01*
X90211088Y-45543906D01*
X90038360Y-45323568D01*
X90037727Y-45322910D01*
X89839898Y-45117667D01*
X89504032Y-45119949D01*
X89129260Y-45130071D01*
X88833045Y-45155316D01*
X88610499Y-45196474D01*
X88456734Y-45254337D01*
X88392913Y-45299785D01*
X88231153Y-45411741D01*
X88068595Y-45439525D01*
X87925148Y-45395840D01*
X87785572Y-45282664D01*
X87713930Y-45134227D01*
X87714602Y-44970204D01*
X87791967Y-44810270D01*
X87794168Y-44807450D01*
X87927535Y-44699400D01*
X88091865Y-44665777D01*
X88275111Y-44708077D01*
G36*
X100682570Y-47214005D02*
X100826795Y-47308424D01*
X100834256Y-47315743D01*
X100935578Y-47462808D01*
X100952542Y-47616301D01*
X100885125Y-47775147D01*
X100845573Y-47827115D01*
X100733147Y-47960726D01*
X100763357Y-50144914D01*
X100793566Y-52329101D01*
X100896950Y-52451965D01*
X100982768Y-52609735D01*
X100994635Y-52772822D01*
X100939680Y-52922165D01*
X100825032Y-53038701D01*
X100657821Y-53103365D01*
X100653047Y-53104149D01*
X100541466Y-53111313D01*
X100457037Y-53078922D01*
X100367297Y-53000143D01*
X100262275Y-52844893D01*
X100238412Y-52678179D01*
X100296387Y-52512425D01*
X100337601Y-52455165D01*
X100436869Y-52335500D01*
X100417732Y-50155333D01*
X100398596Y-47975167D01*
X100287677Y-47856974D01*
X100193198Y-47709619D01*
X100169263Y-47560716D01*
X100203723Y-47422296D01*
X100284431Y-47306386D01*
X100399240Y-47225015D01*
X100536002Y-47190212D01*
X100682570Y-47214005D01*
X100682570Y-47214005D01*
G37*
X100682570Y-47214005D02*
X100826795Y-47308424D01*
X100834256Y-47315743D01*
X100935578Y-47462808D01*
X100952542Y-47616301D01*
X100885125Y-47775147D01*
X100845573Y-47827115D01*
X100733147Y-47960726D01*
X100763357Y-50144914D01*
X100793566Y-52329101D01*
X100896950Y-52451965D01*
X100982768Y-52609735D01*
X100994635Y-52772822D01*
X100939680Y-52922165D01*
X100825032Y-53038701D01*
X100657821Y-53103365D01*
X100653047Y-53104149D01*
X100541466Y-53111313D01*
X100457037Y-53078922D01*
X100367297Y-53000143D01*
X100262275Y-52844893D01*
X100238412Y-52678179D01*
X100296387Y-52512425D01*
X100337601Y-52455165D01*
X100436869Y-52335500D01*
X100417732Y-50155333D01*
X100398596Y-47975167D01*
X100287677Y-47856974D01*
X100193198Y-47709619D01*
X100169263Y-47560716D01*
X100203723Y-47422296D01*
X100284431Y-47306386D01*
X100399240Y-47225015D01*
X100536002Y-47190212D01*
X100682570Y-47214005D01*
G36*
X95632224Y-47155349D02*
X95726070Y-47237581D01*
X95817106Y-47396591D01*
X95823486Y-47556072D01*
X95745210Y-47715187D01*
X95726113Y-47739034D01*
X95616560Y-47869231D01*
X95647573Y-50068991D01*
X95678586Y-52268752D01*
X95778293Y-52362422D01*
X95858726Y-52490152D01*
X95882275Y-52647084D01*
X95848793Y-52800541D01*
X95780715Y-52898969D01*
X95639077Y-52985457D01*
X95475531Y-53017287D01*
X95342779Y-52993625D01*
X95211158Y-52897345D01*
X95136402Y-52756975D01*
X95122774Y-52594767D01*
X95174534Y-52432974D01*
X95222198Y-52363953D01*
X95328396Y-52237744D01*
X95301372Y-50064122D01*
X95295153Y-49577314D01*
X95289408Y-49168122D01*
X95283816Y-48829498D01*
X95278054Y-48554397D01*
X95271799Y-48335770D01*
X95264728Y-48166570D01*
X95256520Y-48039751D01*
X95246850Y-47948265D01*
X95235397Y-47885066D01*
X95221839Y-47843106D01*
X95205851Y-47815339D01*
X95197994Y-47805833D01*
X95087103Y-47635331D01*
X95060609Y-47462757D01*
X95091527Y-47341549D01*
X95190045Y-47198405D01*
X95326996Y-47117365D01*
X95481386Y-47101866D01*
X95632224Y-47155349D01*
X95632224Y-47155349D01*
G37*
X95632224Y-47155349D02*
X95726070Y-47237581D01*
X95817106Y-47396591D01*
X95823486Y-47556072D01*
X95745210Y-47715187D01*
X95726113Y-47739034D01*
X95616560Y-47869231D01*
X95647573Y-50068991D01*
X95678586Y-52268752D01*
X95778293Y-52362422D01*
X95858726Y-52490152D01*
X95882275Y-52647084D01*
X95848793Y-52800541D01*
X95780715Y-52898969D01*
X95639077Y-52985457D01*
X95475531Y-53017287D01*
X95342779Y-52993625D01*
X95211158Y-52897345D01*
X95136402Y-52756975D01*
X95122774Y-52594767D01*
X95174534Y-52432974D01*
X95222198Y-52363953D01*
X95328396Y-52237744D01*
X95301372Y-50064122D01*
X95295153Y-49577314D01*
X95289408Y-49168122D01*
X95283816Y-48829498D01*
X95278054Y-48554397D01*
X95271799Y-48335770D01*
X95264728Y-48166570D01*
X95256520Y-48039751D01*
X95246850Y-47948265D01*
X95235397Y-47885066D01*
X95221839Y-47843106D01*
X95205851Y-47815339D01*
X95197994Y-47805833D01*
X95087103Y-47635331D01*
X95060609Y-47462757D01*
X95091527Y-47341549D01*
X95190045Y-47198405D01*
X95326996Y-47117365D01*
X95481386Y-47101866D01*
X95632224Y-47155349D01*
G36*
X98168536Y-47142802D02*
X98291881Y-47237195D01*
X98364900Y-47372490D01*
X98380091Y-47530667D01*
X98329954Y-47693704D01*
X98278514Y-47770835D01*
X98181362Y-47890500D01*
X98227500Y-52250902D01*
X98321673Y-52345041D01*
X98418465Y-52492044D01*
X98445978Y-52653917D01*
X98406890Y-52808788D01*
X98303883Y-52934784D01*
X98244806Y-52972496D01*
X98092487Y-53026360D01*
X97952771Y-53011147D01*
X97862927Y-52970515D01*
X97739338Y-52860556D01*
X97677428Y-52712958D01*
X97679871Y-52550801D01*
X97749344Y-52397167D01*
X97790883Y-52348783D01*
X97881280Y-52258386D01*
X97854445Y-50059225D01*
X97827610Y-47860065D01*
X97720638Y-47753093D01*
X97630226Y-47612408D01*
X97610407Y-47459960D01*
X97652894Y-47314749D01*
X97749399Y-47195770D01*
X97891634Y-47122022D01*
X98002363Y-47107333D01*
X98168536Y-47142802D01*
X98168536Y-47142802D01*
G37*
X98168536Y-47142802D02*
X98291881Y-47237195D01*
X98364900Y-47372490D01*
X98380091Y-47530667D01*
X98329954Y-47693704D01*
X98278514Y-47770835D01*
X98181362Y-47890500D01*
X98227500Y-52250902D01*
X98321673Y-52345041D01*
X98418465Y-52492044D01*
X98445978Y-52653917D01*
X98406890Y-52808788D01*
X98303883Y-52934784D01*
X98244806Y-52972496D01*
X98092487Y-53026360D01*
X97952771Y-53011147D01*
X97862927Y-52970515D01*
X97739338Y-52860556D01*
X97677428Y-52712958D01*
X97679871Y-52550801D01*
X97749344Y-52397167D01*
X97790883Y-52348783D01*
X97881280Y-52258386D01*
X97854445Y-50059225D01*
X97827610Y-47860065D01*
X97720638Y-47753093D01*
X97630226Y-47612408D01*
X97610407Y-47459960D01*
X97652894Y-47314749D01*
X97749399Y-47195770D01*
X97891634Y-47122022D01*
X98002363Y-47107333D01*
X98168536Y-47142802D01*
G36*
X87955643Y-47170526D02*
X88122048Y-47248370D01*
X88224283Y-47380427D01*
X88258000Y-47555449D01*
X88245258Y-47687894D01*
X88193924Y-47781438D01*
X88127752Y-47844403D01*
X87973155Y-47932719D01*
X87817176Y-47947727D01*
X87684008Y-47891846D01*
X87640626Y-47870588D01*
X87567162Y-47854485D01*
X87453230Y-47842883D01*
X87288443Y-47835127D01*
X87062415Y-47830563D01*
X86764758Y-47828535D01*
X86676611Y-47828346D01*
X85751389Y-47827000D01*
X85625613Y-47932833D01*
X85467789Y-48023133D01*
X85311842Y-48029135D01*
X85161670Y-47950978D01*
X85122077Y-47914923D01*
X85021777Y-47765016D01*
X84996071Y-47606000D01*
X85040628Y-47456812D01*
X85151120Y-47336390D01*
X85267533Y-47278636D01*
X85444919Y-47257628D01*
X85603096Y-47318850D01*
X85692811Y-47398808D01*
X85724072Y-47429175D01*
X85763429Y-47451774D01*
X85822828Y-47467748D01*
X85914219Y-47478243D01*
X86049550Y-47484401D01*
X86240769Y-47487367D01*
X86499823Y-47488284D01*
X86627933Y-47488333D01*
X87482410Y-47488333D01*
X87529703Y-47384536D01*
X87619637Y-47272761D01*
X87754832Y-47193330D01*
X87900247Y-47163851D01*
X87955643Y-47170526D01*
X87955643Y-47170526D01*
G37*
X87955643Y-47170526D02*
X88122048Y-47248370D01*
X88224283Y-47380427D01*
X88258000Y-47555449D01*
X88245258Y-47687894D01*
X88193924Y-47781438D01*
X88127752Y-47844403D01*
X87973155Y-47932719D01*
X87817176Y-47947727D01*
X87684008Y-47891846D01*
X87640626Y-47870588D01*
X87567162Y-47854485D01*
X87453230Y-47842883D01*
X87288443Y-47835127D01*
X87062415Y-47830563D01*
X86764758Y-47828535D01*
X86676611Y-47828346D01*
X85751389Y-47827000D01*
X85625613Y-47932833D01*
X85467789Y-48023133D01*
X85311842Y-48029135D01*
X85161670Y-47950978D01*
X85122077Y-47914923D01*
X85021777Y-47765016D01*
X84996071Y-47606000D01*
X85040628Y-47456812D01*
X85151120Y-47336390D01*
X85267533Y-47278636D01*
X85444919Y-47257628D01*
X85603096Y-47318850D01*
X85692811Y-47398808D01*
X85724072Y-47429175D01*
X85763429Y-47451774D01*
X85822828Y-47467748D01*
X85914219Y-47478243D01*
X86049550Y-47484401D01*
X86240769Y-47487367D01*
X86499823Y-47488284D01*
X86627933Y-47488333D01*
X87482410Y-47488333D01*
X87529703Y-47384536D01*
X87619637Y-47272761D01*
X87754832Y-47193330D01*
X87900247Y-47163851D01*
X87955643Y-47170526D01*
G36*
X77907138Y-42289721D02*
X78068730Y-42368561D01*
X78084168Y-42380903D01*
X78203833Y-42480473D01*
X85591000Y-42509530D01*
X86419226Y-42512972D01*
X87250546Y-42516783D01*
X88078592Y-42520918D01*
X88896998Y-42525331D01*
X89699394Y-42529978D01*
X90479415Y-42534814D01*
X91230691Y-42539794D01*
X91946856Y-42544874D01*
X92621542Y-42550008D01*
X93248380Y-42555152D01*
X93821004Y-42560261D01*
X94333047Y-42565290D01*
X94778139Y-42570194D01*
X95149914Y-42574929D01*
X95385520Y-42578486D01*
X97792873Y-42618385D01*
X97910754Y-42492192D01*
X98051882Y-42391485D01*
X98204041Y-42361425D01*
X98350256Y-42392756D01*
X98473549Y-42476225D01*
X98556944Y-42602579D01*
X98583463Y-42762564D01*
X98570243Y-42851662D01*
X98495457Y-42997197D01*
X98368959Y-43090372D01*
X98209668Y-43125511D01*
X98036507Y-43096938D01*
X97929260Y-43043957D01*
X97902335Y-43028534D01*
X97869008Y-43015022D01*
X97823448Y-43003204D01*
X97759823Y-42992863D01*
X97672304Y-42983781D01*
X97555059Y-42975743D01*
X97402257Y-42968531D01*
X97208067Y-42961928D01*
X96966660Y-42955717D01*
X96672202Y-42949681D01*
X96318865Y-42943604D01*
X95900816Y-42937268D01*
X95412225Y-42930456D01*
X94847262Y-42922952D01*
X94584927Y-42919531D01*
X94155812Y-42914365D01*
X93650080Y-42908998D01*
X93075778Y-42903487D01*
X92440956Y-42897889D01*
X91753661Y-42892260D01*
X91021942Y-42886657D01*
X90253848Y-42881136D01*
X89457427Y-42875755D01*
X88640728Y-42870569D01*
X87811798Y-42865636D01*
X86978687Y-42861012D01*
X86149443Y-42856754D01*
X85332115Y-42852919D01*
X84795556Y-42850615D01*
X78221612Y-42823509D01*
X78111700Y-42933421D01*
X77969936Y-43028091D01*
X77819645Y-43054171D01*
X77675960Y-43022139D01*
X77554010Y-42942472D01*
X77468928Y-42825647D01*
X77435844Y-42682141D01*
X77469890Y-42522433D01*
X77481920Y-42497345D01*
X77595043Y-42357727D01*
X77743013Y-42287315D01*
X77907138Y-42289721D01*
X77907138Y-42289721D01*
G37*
X77907138Y-42289721D02*
X78068730Y-42368561D01*
X78084168Y-42380903D01*
X78203833Y-42480473D01*
X85591000Y-42509530D01*
X86419226Y-42512972D01*
X87250546Y-42516783D01*
X88078592Y-42520918D01*
X88896998Y-42525331D01*
X89699394Y-42529978D01*
X90479415Y-42534814D01*
X91230691Y-42539794D01*
X91946856Y-42544874D01*
X92621542Y-42550008D01*
X93248380Y-42555152D01*
X93821004Y-42560261D01*
X94333047Y-42565290D01*
X94778139Y-42570194D01*
X95149914Y-42574929D01*
X95385520Y-42578486D01*
X97792873Y-42618385D01*
X97910754Y-42492192D01*
X98051882Y-42391485D01*
X98204041Y-42361425D01*
X98350256Y-42392756D01*
X98473549Y-42476225D01*
X98556944Y-42602579D01*
X98583463Y-42762564D01*
X98570243Y-42851662D01*
X98495457Y-42997197D01*
X98368959Y-43090372D01*
X98209668Y-43125511D01*
X98036507Y-43096938D01*
X97929260Y-43043957D01*
X97902335Y-43028534D01*
X97869008Y-43015022D01*
X97823448Y-43003204D01*
X97759823Y-42992863D01*
X97672304Y-42983781D01*
X97555059Y-42975743D01*
X97402257Y-42968531D01*
X97208067Y-42961928D01*
X96966660Y-42955717D01*
X96672202Y-42949681D01*
X96318865Y-42943604D01*
X95900816Y-42937268D01*
X95412225Y-42930456D01*
X94847262Y-42922952D01*
X94584927Y-42919531D01*
X94155812Y-42914365D01*
X93650080Y-42908998D01*
X93075778Y-42903487D01*
X92440956Y-42897889D01*
X91753661Y-42892260D01*
X91021942Y-42886657D01*
X90253848Y-42881136D01*
X89457427Y-42875755D01*
X88640728Y-42870569D01*
X87811798Y-42865636D01*
X86978687Y-42861012D01*
X86149443Y-42856754D01*
X85332115Y-42852919D01*
X84795556Y-42850615D01*
X78221612Y-42823509D01*
X78111700Y-42933421D01*
X77969936Y-43028091D01*
X77819645Y-43054171D01*
X77675960Y-43022139D01*
X77554010Y-42942472D01*
X77468928Y-42825647D01*
X77435844Y-42682141D01*
X77469890Y-42522433D01*
X77481920Y-42497345D01*
X77595043Y-42357727D01*
X77743013Y-42287315D01*
X77907138Y-42289721D01*
G36*
X95777740Y-39784894D02*
X95900694Y-39895393D01*
X95944142Y-39973959D01*
X95976059Y-40139081D01*
X95939483Y-40285525D01*
X95850197Y-40402743D01*
X95723984Y-40480185D01*
X95576627Y-40507301D01*
X95423908Y-40473542D01*
X95310500Y-40397500D01*
X95196304Y-40291667D01*
X68090799Y-40291667D01*
X67981118Y-40396748D01*
X67825414Y-40498025D01*
X67657291Y-40525820D01*
X67505147Y-40481388D01*
X67370230Y-40364792D01*
X67305361Y-40216266D01*
X67312959Y-40054815D01*
X67395441Y-39899444D01*
X67426743Y-39865077D01*
X67574654Y-39763902D01*
X67729408Y-39746849D01*
X67887106Y-39814055D01*
X67930280Y-39847167D01*
X68056055Y-39953000D01*
X95167278Y-39953000D01*
X95293053Y-39847167D01*
X95454082Y-39756917D01*
X95622257Y-39737448D01*
X95777740Y-39784894D01*
X95777740Y-39784894D01*
G37*
X95777740Y-39784894D02*
X95900694Y-39895393D01*
X95944142Y-39973959D01*
X95976059Y-40139081D01*
X95939483Y-40285525D01*
X95850197Y-40402743D01*
X95723984Y-40480185D01*
X95576627Y-40507301D01*
X95423908Y-40473542D01*
X95310500Y-40397500D01*
X95196304Y-40291667D01*
X68090799Y-40291667D01*
X67981118Y-40396748D01*
X67825414Y-40498025D01*
X67657291Y-40525820D01*
X67505147Y-40481388D01*
X67370230Y-40364792D01*
X67305361Y-40216266D01*
X67312959Y-40054815D01*
X67395441Y-39899444D01*
X67426743Y-39865077D01*
X67574654Y-39763902D01*
X67729408Y-39746849D01*
X67887106Y-39814055D01*
X67930280Y-39847167D01*
X68056055Y-39953000D01*
X95167278Y-39953000D01*
X95293053Y-39847167D01*
X95454082Y-39756917D01*
X95622257Y-39737448D01*
X95777740Y-39784894D01*
G36*
X82927569Y-36013662D02*
X82936203Y-36410201D01*
X82945497Y-36727484D01*
X82955765Y-36970922D01*
X82967315Y-37145923D01*
X82980459Y-37257899D01*
X82995507Y-37312260D01*
X83002543Y-37319237D01*
X83065305Y-37375235D01*
X83125502Y-37482149D01*
X83167605Y-37607226D01*
X83178000Y-37689321D01*
X83140294Y-37817929D01*
X83043908Y-37935670D01*
X82913941Y-38019443D01*
X82789673Y-38046713D01*
X82666500Y-38032310D01*
X82570783Y-38000056D01*
X82502140Y-37931346D01*
X82438332Y-37823918D01*
X82432632Y-37810843D01*
X82396079Y-37697427D01*
X82403744Y-37601901D01*
X82432279Y-37524001D01*
X82484846Y-37420681D01*
X82535372Y-37354884D01*
X82541280Y-37350563D01*
X82556199Y-37315379D01*
X82567715Y-37226660D01*
X82576002Y-37078729D01*
X82581237Y-36865909D01*
X82583592Y-36582524D01*
X82583244Y-36222896D01*
X82582174Y-36022478D01*
X82573816Y-34724833D01*
X82902833Y-34724833D01*
X82927569Y-36013662D01*
X82927569Y-36013662D01*
G37*
X82927569Y-36013662D02*
X82936203Y-36410201D01*
X82945497Y-36727484D01*
X82955765Y-36970922D01*
X82967315Y-37145923D01*
X82980459Y-37257899D01*
X82995507Y-37312260D01*
X83002543Y-37319237D01*
X83065305Y-37375235D01*
X83125502Y-37482149D01*
X83167605Y-37607226D01*
X83178000Y-37689321D01*
X83140294Y-37817929D01*
X83043908Y-37935670D01*
X82913941Y-38019443D01*
X82789673Y-38046713D01*
X82666500Y-38032310D01*
X82570783Y-38000056D01*
X82502140Y-37931346D01*
X82438332Y-37823918D01*
X82432632Y-37810843D01*
X82396079Y-37697427D01*
X82403744Y-37601901D01*
X82432279Y-37524001D01*
X82484846Y-37420681D01*
X82535372Y-37354884D01*
X82541280Y-37350563D01*
X82556199Y-37315379D01*
X82567715Y-37226660D01*
X82576002Y-37078729D01*
X82581237Y-36865909D01*
X82583592Y-36582524D01*
X82583244Y-36222896D01*
X82582174Y-36022478D01*
X82573816Y-34724833D01*
X82902833Y-34724833D01*
X82927569Y-36013662D01*
G36*
X85563494Y-35091170D02*
X85572245Y-35259059D01*
X85579846Y-35490118D01*
X85585823Y-35762850D01*
X85589698Y-36055761D01*
X85591000Y-36333442D01*
X85591409Y-36623703D01*
X85593398Y-36841243D01*
X85598111Y-36998010D01*
X85606691Y-37105949D01*
X85620281Y-37177005D01*
X85640024Y-37223125D01*
X85667064Y-37256254D01*
X85680525Y-37268855D01*
X85793259Y-37416082D01*
X85823411Y-37581265D01*
X85800697Y-37694133D01*
X85712285Y-37848913D01*
X85581627Y-37940840D01*
X85427662Y-37965584D01*
X85269329Y-37918816D01*
X85164410Y-37839590D01*
X85073243Y-37700057D01*
X85046282Y-37544999D01*
X85082006Y-37398393D01*
X85178893Y-37284214D01*
X85200552Y-37270213D01*
X85218491Y-37250365D01*
X85232041Y-37208673D01*
X85241418Y-37136280D01*
X85246838Y-37024331D01*
X85248520Y-36863967D01*
X85246680Y-36646332D01*
X85241534Y-36362570D01*
X85233301Y-36003824D01*
X85232438Y-35968463D01*
X85201466Y-34703667D01*
X85535988Y-34703667D01*
X85563494Y-35091170D01*
X85563494Y-35091170D01*
G37*
X85563494Y-35091170D02*
X85572245Y-35259059D01*
X85579846Y-35490118D01*
X85585823Y-35762850D01*
X85589698Y-36055761D01*
X85591000Y-36333442D01*
X85591409Y-36623703D01*
X85593398Y-36841243D01*
X85598111Y-36998010D01*
X85606691Y-37105949D01*
X85620281Y-37177005D01*
X85640024Y-37223125D01*
X85667064Y-37256254D01*
X85680525Y-37268855D01*
X85793259Y-37416082D01*
X85823411Y-37581265D01*
X85800697Y-37694133D01*
X85712285Y-37848913D01*
X85581627Y-37940840D01*
X85427662Y-37965584D01*
X85269329Y-37918816D01*
X85164410Y-37839590D01*
X85073243Y-37700057D01*
X85046282Y-37544999D01*
X85082006Y-37398393D01*
X85178893Y-37284214D01*
X85200552Y-37270213D01*
X85218491Y-37250365D01*
X85232041Y-37208673D01*
X85241418Y-37136280D01*
X85246838Y-37024331D01*
X85248520Y-36863967D01*
X85246680Y-36646332D01*
X85241534Y-36362570D01*
X85233301Y-36003824D01*
X85232438Y-35968463D01*
X85201466Y-34703667D01*
X85535988Y-34703667D01*
X85563494Y-35091170D01*
G36*
X88143518Y-35962442D02*
X88153620Y-36378446D01*
X88165073Y-36713463D01*
X88177831Y-36966673D01*
X88191847Y-37137252D01*
X88207075Y-37224380D01*
X88214634Y-37236267D01*
X88273726Y-37290730D01*
X88331736Y-37395854D01*
X88373485Y-37518818D01*
X88385000Y-37604654D01*
X88347277Y-37733149D01*
X88250745Y-37851006D01*
X88120356Y-37935248D01*
X87995509Y-37963333D01*
X87867098Y-37944247D01*
X87762659Y-37899702D01*
X87678614Y-37803556D01*
X87618784Y-37668856D01*
X87597140Y-37533954D01*
X87606991Y-37472378D01*
X87657008Y-37379750D01*
X87716402Y-37301854D01*
X87739573Y-37271561D01*
X87757798Y-37231796D01*
X87771632Y-37172928D01*
X87781626Y-37085328D01*
X87788334Y-36959366D01*
X87792309Y-36785413D01*
X87794105Y-36553837D01*
X87794274Y-36255010D01*
X87793601Y-35957771D01*
X87790013Y-34703667D01*
X88117549Y-34703667D01*
X88143518Y-35962442D01*
X88143518Y-35962442D01*
G37*
X88143518Y-35962442D02*
X88153620Y-36378446D01*
X88165073Y-36713463D01*
X88177831Y-36966673D01*
X88191847Y-37137252D01*
X88207075Y-37224380D01*
X88214634Y-37236267D01*
X88273726Y-37290730D01*
X88331736Y-37395854D01*
X88373485Y-37518818D01*
X88385000Y-37604654D01*
X88347277Y-37733149D01*
X88250745Y-37851006D01*
X88120356Y-37935248D01*
X87995509Y-37963333D01*
X87867098Y-37944247D01*
X87762659Y-37899702D01*
X87678614Y-37803556D01*
X87618784Y-37668856D01*
X87597140Y-37533954D01*
X87606991Y-37472378D01*
X87657008Y-37379750D01*
X87716402Y-37301854D01*
X87739573Y-37271561D01*
X87757798Y-37231796D01*
X87771632Y-37172928D01*
X87781626Y-37085328D01*
X87788334Y-36959366D01*
X87792309Y-36785413D01*
X87794105Y-36553837D01*
X87794274Y-36255010D01*
X87793601Y-35957771D01*
X87790013Y-34703667D01*
X88117549Y-34703667D01*
X88143518Y-35962442D01*
G36*
X90607079Y-36998055D02*
X90768614Y-37076911D01*
X90784168Y-37089357D01*
X90903833Y-37189047D01*
X94459833Y-37219275D01*
X95032593Y-37224460D01*
X95603787Y-37230233D01*
X96164465Y-37236467D01*
X96705675Y-37243039D01*
X97218465Y-37249821D01*
X97693886Y-37256690D01*
X98122985Y-37263520D01*
X98496811Y-37270186D01*
X98806414Y-37276563D01*
X99042841Y-37282525D01*
X99095333Y-37284123D01*
X100174833Y-37318743D01*
X100296273Y-37196538D01*
X100444237Y-37096130D01*
X100600913Y-37067101D01*
X100748238Y-37102385D01*
X100868145Y-37194917D01*
X100942570Y-37337632D01*
X100958000Y-37455333D01*
X100922292Y-37624118D01*
X100827429Y-37750532D01*
X100691800Y-37826190D01*
X100533793Y-37842711D01*
X100371798Y-37791712D01*
X100310162Y-37750655D01*
X100276966Y-37727816D01*
X100235275Y-37709015D01*
X100176260Y-37693564D01*
X100091093Y-37680778D01*
X99970945Y-37669969D01*
X99806988Y-37660452D01*
X99590394Y-37651541D01*
X99312333Y-37642549D01*
X98963979Y-37632791D01*
X98706369Y-37625990D01*
X98405923Y-37619000D01*
X98032247Y-37611698D01*
X97596780Y-37604240D01*
X97110959Y-37596779D01*
X96586221Y-37589473D01*
X96034002Y-37582477D01*
X95465739Y-37575947D01*
X94892871Y-37570038D01*
X94326832Y-37564905D01*
X94057667Y-37562738D01*
X90903833Y-37538472D01*
X90804140Y-37645069D01*
X90668596Y-37740266D01*
X90522191Y-37765920D01*
X90380396Y-37732958D01*
X90258683Y-37652307D01*
X90172525Y-37534890D01*
X90137392Y-37391635D01*
X90168757Y-37233467D01*
X90181920Y-37205678D01*
X90295043Y-37066048D01*
X90442992Y-36995638D01*
X90607079Y-36998055D01*
X90607079Y-36998055D01*
G37*
X90607079Y-36998055D02*
X90768614Y-37076911D01*
X90784168Y-37089357D01*
X90903833Y-37189047D01*
X94459833Y-37219275D01*
X95032593Y-37224460D01*
X95603787Y-37230233D01*
X96164465Y-37236467D01*
X96705675Y-37243039D01*
X97218465Y-37249821D01*
X97693886Y-37256690D01*
X98122985Y-37263520D01*
X98496811Y-37270186D01*
X98806414Y-37276563D01*
X99042841Y-37282525D01*
X99095333Y-37284123D01*
X100174833Y-37318743D01*
X100296273Y-37196538D01*
X100444237Y-37096130D01*
X100600913Y-37067101D01*
X100748238Y-37102385D01*
X100868145Y-37194917D01*
X100942570Y-37337632D01*
X100958000Y-37455333D01*
X100922292Y-37624118D01*
X100827429Y-37750532D01*
X100691800Y-37826190D01*
X100533793Y-37842711D01*
X100371798Y-37791712D01*
X100310162Y-37750655D01*
X100276966Y-37727816D01*
X100235275Y-37709015D01*
X100176260Y-37693564D01*
X100091093Y-37680778D01*
X99970945Y-37669969D01*
X99806988Y-37660452D01*
X99590394Y-37651541D01*
X99312333Y-37642549D01*
X98963979Y-37632791D01*
X98706369Y-37625990D01*
X98405923Y-37619000D01*
X98032247Y-37611698D01*
X97596780Y-37604240D01*
X97110959Y-37596779D01*
X96586221Y-37589473D01*
X96034002Y-37582477D01*
X95465739Y-37575947D01*
X94892871Y-37570038D01*
X94326832Y-37564905D01*
X94057667Y-37562738D01*
X90903833Y-37538472D01*
X90804140Y-37645069D01*
X90668596Y-37740266D01*
X90522191Y-37765920D01*
X90380396Y-37732958D01*
X90258683Y-37652307D01*
X90172525Y-37534890D01*
X90137392Y-37391635D01*
X90168757Y-37233467D01*
X90181920Y-37205678D01*
X90295043Y-37066048D01*
X90442992Y-36995638D01*
X90607079Y-36998055D01*
G36*
X72956076Y-34530492D02*
X73063590Y-34615743D01*
X73165049Y-34766235D01*
X73191224Y-34925035D01*
X73145441Y-35073770D01*
X73031027Y-35194063D01*
X72951092Y-35236985D01*
X72838185Y-35273721D01*
X72743645Y-35266884D01*
X72661062Y-35236771D01*
X72581502Y-35214171D01*
X72457624Y-35196510D01*
X72280133Y-35183157D01*
X72039732Y-35173485D01*
X71727125Y-35166862D01*
X71603763Y-35165206D01*
X71295251Y-35162338D01*
X71060404Y-35162454D01*
X70888250Y-35166164D01*
X70767821Y-35174074D01*
X70688147Y-35186792D01*
X70638258Y-35204927D01*
X70616617Y-35219896D01*
X70458141Y-35332003D01*
X70313883Y-35371367D01*
X70164498Y-35342975D01*
X70154446Y-35339023D01*
X70028654Y-35245483D01*
X69949119Y-35096523D01*
X69927667Y-34952010D01*
X69946152Y-34824729D01*
X70015375Y-34724728D01*
X70057915Y-34686263D01*
X70217800Y-34595430D01*
X70378514Y-34588457D01*
X70534869Y-34665444D01*
X70548835Y-34676734D01*
X70593360Y-34710968D01*
X70642103Y-34736770D01*
X70707644Y-34755717D01*
X70802565Y-34769389D01*
X70939449Y-34779365D01*
X71130878Y-34787224D01*
X71389433Y-34794544D01*
X71512098Y-34797616D01*
X72355696Y-34818432D01*
X72510960Y-34655216D01*
X72665074Y-34530061D01*
X72812140Y-34488579D01*
X72956076Y-34530492D01*
X72956076Y-34530492D01*
G37*
X72956076Y-34530492D02*
X73063590Y-34615743D01*
X73165049Y-34766235D01*
X73191224Y-34925035D01*
X73145441Y-35073770D01*
X73031027Y-35194063D01*
X72951092Y-35236985D01*
X72838185Y-35273721D01*
X72743645Y-35266884D01*
X72661062Y-35236771D01*
X72581502Y-35214171D01*
X72457624Y-35196510D01*
X72280133Y-35183157D01*
X72039732Y-35173485D01*
X71727125Y-35166862D01*
X71603763Y-35165206D01*
X71295251Y-35162338D01*
X71060404Y-35162454D01*
X70888250Y-35166164D01*
X70767821Y-35174074D01*
X70688147Y-35186792D01*
X70638258Y-35204927D01*
X70616617Y-35219896D01*
X70458141Y-35332003D01*
X70313883Y-35371367D01*
X70164498Y-35342975D01*
X70154446Y-35339023D01*
X70028654Y-35245483D01*
X69949119Y-35096523D01*
X69927667Y-34952010D01*
X69946152Y-34824729D01*
X70015375Y-34724728D01*
X70057915Y-34686263D01*
X70217800Y-34595430D01*
X70378514Y-34588457D01*
X70534869Y-34665444D01*
X70548835Y-34676734D01*
X70593360Y-34710968D01*
X70642103Y-34736770D01*
X70707644Y-34755717D01*
X70802565Y-34769389D01*
X70939449Y-34779365D01*
X71130878Y-34787224D01*
X71389433Y-34794544D01*
X71512098Y-34797616D01*
X72355696Y-34818432D01*
X72510960Y-34655216D01*
X72665074Y-34530061D01*
X72812140Y-34488579D01*
X72956076Y-34530492D01*
G36*
X90726439Y-29558779D02*
X90801256Y-29620410D01*
X90898285Y-29768517D01*
X90920141Y-29927953D01*
X90870311Y-30078720D01*
X90752279Y-30200818D01*
X90694384Y-30233610D01*
X90521673Y-30275143D01*
X90357923Y-30232663D01*
X90261794Y-30164106D01*
X90247361Y-30150040D01*
X90233859Y-30137428D01*
X90216860Y-30126262D01*
X90191940Y-30116538D01*
X90154672Y-30108247D01*
X90100630Y-30101384D01*
X90025388Y-30095941D01*
X89924521Y-30091913D01*
X89793602Y-30089291D01*
X89628206Y-30088070D01*
X89423906Y-30088243D01*
X89176278Y-30089804D01*
X88880894Y-30092744D01*
X88533329Y-30097059D01*
X88129157Y-30102741D01*
X87663952Y-30109783D01*
X87133289Y-30118180D01*
X86532740Y-30127923D01*
X85857881Y-30139007D01*
X85104286Y-30151425D01*
X84831384Y-30155916D01*
X80833268Y-30221665D01*
X80737655Y-30324832D01*
X80606593Y-30409471D01*
X80447452Y-30432153D01*
X80289818Y-30392919D01*
X80191576Y-30324091D01*
X80112775Y-30209401D01*
X80087776Y-30060659D01*
X80087667Y-30047000D01*
X80121962Y-29867474D01*
X80219480Y-29740381D01*
X80372167Y-29673938D01*
X80460970Y-29666000D01*
X80617156Y-29691780D01*
X80729760Y-29769305D01*
X80833065Y-29872611D01*
X83307283Y-29832243D01*
X83851452Y-29823323D01*
X84445846Y-29813509D01*
X85071096Y-29803123D01*
X85707835Y-29792490D01*
X86336696Y-29781934D01*
X86938310Y-29771779D01*
X87493311Y-29762351D01*
X87966180Y-29754250D01*
X90150859Y-29716625D01*
X90260839Y-29606646D01*
X90407141Y-29512360D01*
X90567803Y-29496543D01*
X90726439Y-29558779D01*
X90726439Y-29558779D01*
G37*
X90726439Y-29558779D02*
X90801256Y-29620410D01*
X90898285Y-29768517D01*
X90920141Y-29927953D01*
X90870311Y-30078720D01*
X90752279Y-30200818D01*
X90694384Y-30233610D01*
X90521673Y-30275143D01*
X90357923Y-30232663D01*
X90261794Y-30164106D01*
X90247361Y-30150040D01*
X90233859Y-30137428D01*
X90216860Y-30126262D01*
X90191940Y-30116538D01*
X90154672Y-30108247D01*
X90100630Y-30101384D01*
X90025388Y-30095941D01*
X89924521Y-30091913D01*
X89793602Y-30089291D01*
X89628206Y-30088070D01*
X89423906Y-30088243D01*
X89176278Y-30089804D01*
X88880894Y-30092744D01*
X88533329Y-30097059D01*
X88129157Y-30102741D01*
X87663952Y-30109783D01*
X87133289Y-30118180D01*
X86532740Y-30127923D01*
X85857881Y-30139007D01*
X85104286Y-30151425D01*
X84831384Y-30155916D01*
X80833268Y-30221665D01*
X80737655Y-30324832D01*
X80606593Y-30409471D01*
X80447452Y-30432153D01*
X80289818Y-30392919D01*
X80191576Y-30324091D01*
X80112775Y-30209401D01*
X80087776Y-30060659D01*
X80087667Y-30047000D01*
X80121962Y-29867474D01*
X80219480Y-29740381D01*
X80372167Y-29673938D01*
X80460970Y-29666000D01*
X80617156Y-29691780D01*
X80729760Y-29769305D01*
X80833065Y-29872611D01*
X83307283Y-29832243D01*
X83851452Y-29823323D01*
X84445846Y-29813509D01*
X85071096Y-29803123D01*
X85707835Y-29792490D01*
X86336696Y-29781934D01*
X86938310Y-29771779D01*
X87493311Y-29762351D01*
X87966180Y-29754250D01*
X90150859Y-29716625D01*
X90260839Y-29606646D01*
X90407141Y-29512360D01*
X90567803Y-29496543D01*
X90726439Y-29558779D01*
D12*
X80250000Y-29700000D03*
D13*
X100580000Y-27250000D03*
X98150000Y-27290000D03*
X95500000Y-27270000D03*
X75200000Y-24570000D03*
X75310000Y-27270000D03*
X75240000Y-29710000D03*
X75180000Y-32210000D03*
X67500000Y-39900000D03*
X70130000Y-34900000D03*
X72780000Y-34790000D03*
X75300000Y-37220000D03*
X77760000Y-37220000D03*
X82790000Y-37500000D03*
X85380000Y-37410000D03*
X87980000Y-37470000D03*
X90410000Y-37220000D03*
X100620000Y-37220000D03*
X95550000Y-39780000D03*
X98210000Y-42520000D03*
X82900000Y-47440000D03*
X77780000Y-42520000D03*
X70050000Y-42580000D03*
X75270000Y-44930000D03*
X72900000Y-45040000D03*
X70270000Y-44900000D03*
X67640000Y-44960000D03*
X67530000Y-52580000D03*
X70130000Y-52580000D03*
X72700000Y-52470000D03*
X75330000Y-52470000D03*
X77780000Y-52690000D03*
X85300000Y-47550000D03*
X88010000Y-47550000D03*
X87990000Y-45050000D03*
X95520000Y-47530000D03*
X98000000Y-47570000D03*
X100600000Y-47570000D03*
X90460000Y-52670000D03*
X95520000Y-52630000D03*
X98000000Y-52570000D03*
X100540000Y-52670000D03*
X100770000Y-55490000D03*
X93020000Y-55390000D03*
X93170000Y-57790000D03*
X98080000Y-60270000D03*
X75190000Y-60320000D03*
X82730000Y-57720000D03*
X80300000Y-57650000D03*
X70120000Y-57510000D03*
X72700000Y-55190000D03*
X65040000Y-55090000D03*
X67620000Y-55130000D03*
X67710000Y-57690000D03*
X62540000Y-57770000D03*
X67540000Y-60190000D03*
X72730000Y-60310000D03*
X82910000Y-62790000D03*
X77690000Y-65340000D03*
X87860000Y-65460000D03*
X100610000Y-70440000D03*
X98010000Y-70520000D03*
X95550000Y-70460000D03*
X93040000Y-70460000D03*
X90530000Y-70440000D03*
X87840000Y-70460000D03*
X82810000Y-70490000D03*
X80330000Y-70460000D03*
X77740000Y-70530000D03*
X62520000Y-62850000D03*
X65080000Y-65450000D03*
X65130000Y-68070000D03*
X65110000Y-70650000D03*
X65080000Y-73110000D03*
X54970000Y-70600000D03*
X57400000Y-70550000D03*
X57440000Y-65430000D03*
X54850000Y-65470000D03*
X57460000Y-53010000D03*
X55010000Y-52960000D03*
X57380000Y-47660000D03*
X54860000Y-47580000D03*
X57420000Y-32320000D03*
X54830000Y-32350000D03*
X57390000Y-27190000D03*
X54850000Y-27200000D03*
D12*
X90460000Y-29840000D03*
M02*
