M48
;DRILL file {KiCad 4.0.7-e0-6372~58~ubuntu16.04.1} date Sun Feb 25 02:32:49 2018
;FORMAT={-:-/ absolute / inch / decimal}
FMAT,2
INCH,TZ
T1C0.031
%
G90
G05
M72
T1
X2.1587Y-1.2736
X2.1594Y-1.0709
X2.1594Y-2.5776
X2.1598Y-1.8732
X2.1642Y-2.7795
X2.1657Y-2.085
X2.2591Y-1.8764
X2.2594Y-1.0705
X2.2598Y-2.7776
X2.2606Y-1.2724
X2.2614Y-2.576
X2.2622Y-2.087
X2.4614Y-2.4744
X2.4622Y-2.2744
X2.5606Y-2.1689
X2.5622Y-2.5768
X2.5622Y-2.8783
X2.5634Y-2.7815
X2.5642Y-2.6799
X2.6575Y-1.5709
X2.6587Y-2.0701
X2.6591Y-2.3697
X2.6622Y-2.1705
X2.663Y-1.7701
X2.6657Y-2.2713
X2.7579Y-1.6764
X2.7606Y-2.2642
X2.761Y-1.374
X2.761Y-2.0701
X2.7665Y-1.7677
X2.8622Y-2.0657
X2.8622Y-2.1728
X2.8634Y-2.3744
X2.8654Y-1.3697
X2.8701Y-1.7732
X2.9598Y-1.2681
X2.9602Y-2.3748
X2.9606Y-0.9673
X2.9622Y-1.1697
X2.9634Y-1.7689
X2.9646Y-1.4654
X2.965Y-1.0736
X2.9657Y-2.0657
X3.0587Y-2.5724
X3.0606Y-2.7768
X3.0614Y-1.4654
X3.0622Y-1.674
X3.0622Y-2.0744
X3.1614Y-2.2697
X3.1626Y-2.774
X3.2571Y-2.2724
X3.2594Y-1.4764
X3.2602Y-1.2772
X3.2602Y-2.7752
X3.2638Y-1.8677
X3.2642Y-2.472
X3.3583Y-1.872
X3.3614Y-1.4728
X3.3626Y-1.2681
X3.4583Y-2.774
X3.4591Y-2.5772
X3.4606Y-1.2693
X3.4638Y-1.4752
X3.4642Y-1.7736
X3.465Y-1.872
X3.5594Y-1.4654
X3.5614Y-2.0736
X3.5642Y-2.7732
X3.6622Y-2.1807
X3.663Y-2.774
X3.6681Y-2.2752
X3.7598Y-1.0736
X3.7606Y-1.8713
X3.7606Y-2.072
X3.7618Y-1.5661
X3.7618Y-2.774
X3.8583Y-1.8728
X3.8583Y-2.0697
X3.8587Y-2.7764
X3.8614Y-2.3728
X3.8642Y-1.0744
X3.8665Y-1.674
X3.9583Y-2.0736
X3.9598Y-1.0728
X3.9606Y-1.8728
X3.961Y-2.7732
X3.9614Y-1.4654
X3.9673Y-2.1846
T1
X3.1594Y-1.1492G85X3.1594Y-1.1965
G05
X3.5614Y-1.1504G85X3.5614Y-1.1976
G05
T0
M30
